# xmcd
#
# Track frame offsets:
#	150
#	18565
#	34427
#	50005
#	64937
#	79093
#	95878
#	111078
#	125972
#	141728
#	156963
#	173766
#
# Disc length: 2517 seconds
#
# Revision: 1
# Processed by: cddbd v1.5.2PL0 Copyright (c) Steve Scherf et al.
# Submitted via: audiograbber 1.83.01
#
DISCID=ba09d30c
DTITLE=MATYI ÉS A HEGEDÛS - GYERE ÉS TÁNCOLJ!
DYEAR=1900
DGENRE=
TTITLE0=Még az éjjel úgy berúgok babám
TTITLE1=Eladó a menyasszony
TTITLE2=Zsebkendõm négy sarka
TTITLE3=Sör,bor,pálinka
TTITLE4=Mozdonyszõke az én rózsám
TTITLE5=Nincsen pén
TTITLE6=ek én
TTITLE7=Hosszú fekete haj
TTITLE8=Már ezután úgy élem világom
TTITLE9=Emeld fel a poharad
TTITLE10=Nem kell nékem a pogácsa
TTITLE11=Gyere és táncolj (Bónus Track)
EXTD=
EXTT0=
EXTT1=
EXTT2=
EXTT3=
EXTT4=
EXTT5=
EXTT6=
EXTT7=
EXTT8=
EXTT9=
EXTT10=
EXTT11=
PLAYORDER=
